<svg id="visual" viewBox="0 0 960 540" width="960" height="540" xmlns="http://www.w3.org/2000/svg" xmlns:xlink="http://www.w3.org/1999/xlink" version="1.1"><rect x="0" y="0" width="960" height="540" fill="#FFFFFF"></rect><defs><linearGradient id="grad1_0" x1="43.8%" y1="0%" x2="100%" y2="100%"><stop offset="14.444444444444446%" stop-color="#ffffff" stop-opacity="1"></stop><stop offset="85.55555555555554%" stop-color="#ffffff" stop-opacity="1"></stop></linearGradient></defs><defs><linearGradient id="grad2_0" x1="0%" y1="0%" x2="56.3%" y2="100%"><stop offset="14.444444444444446%" stop-color="#ffffff" stop-opacity="1"></stop><stop offset="85.55555555555554%" stop-color="#ffffff" stop-opacity="1"></stop></linearGradient></defs><g transform="translate(960, 0)"><path d="M0 351C-50 351.2 -100 351.5 -134.3 324.3C-168.6 297.1 -187.2 242.5 -202.2 202.2C-217.3 162 -228.9 136.2 -253.1 104.9C-277.4 73.5 -314.2 36.8 -351 0L0 0Z" fill="#e5fce8"></path></g><g transform="translate(0, 540)"><path d="M0 -351C50.6 -351.9 101.2 -352.9 134.3 -324.3C167.5 -295.7 183.1 -237.5 196.6 -196.6C210 -155.7 221.3 -132.1 246.7 -102.2C272 -72.3 311.5 -36.1 351 0L0 0Z" fill="#e5fce8"></path></g></svg>