<?xml version="1.0" standalone="no"?>
<svg xmlns:xlink="http://www.w3.org/1999/xlink" id="wave" style="transform:rotate(0deg); transition: 0.3s" viewBox="0 0 1440 490" version="1.1" xmlns="http://www.w3.org/2000/svg"><defs><linearGradient id="sw-gradient-0" x1="0" x2="0" y1="1" y2="0"><stop stop-color="rgba(31.404, 201.851, 57.494, 0.71)" offset="0%"/><stop stop-color="rgba(196.836, 255, 11, 1)" offset="100%"/></linearGradient></defs><path style="transform:translate(0, 0px); opacity:1" fill="url(#sw-gradient-0)" d="M0,245L26.7,277.7C53.3,310,107,376,160,383.8C213.3,392,267,343,320,285.8C373.3,229,427,163,480,138.8C533.3,114,587,131,640,163.3C693.3,196,747,245,800,245C853.3,245,907,196,960,155.2C1013.3,114,1067,82,1120,89.8C1173.3,98,1227,147,1280,147C1333.3,147,1387,98,1440,130.7C1493.3,163,1547,278,1600,277.7C1653.3,278,1707,163,1760,98C1813.3,33,1867,16,1920,65.3C1973.3,114,2027,229,2080,285.8C2133.3,343,2187,343,2240,310.3C2293.3,278,2347,212,2400,212.3C2453.3,212,2507,278,2560,261.3C2613.3,245,2667,147,2720,130.7C2773.3,114,2827,180,2880,179.7C2933.3,180,2987,114,3040,114.3C3093.3,114,3147,180,3200,228.7C3253.3,278,3307,310,3360,326.7C3413.3,343,3467,343,3520,351.2C3573.3,359,3627,376,3680,343C3733.3,310,3787,229,3813,187.8L3840,147L3840,490L3813.3,490C3786.7,490,3733,490,3680,490C3626.7,490,3573,490,3520,490C3466.7,490,3413,490,3360,490C3306.7,490,3253,490,3200,490C3146.7,490,3093,490,3040,490C2986.7,490,2933,490,2880,490C2826.7,490,2773,490,2720,490C2666.7,490,2613,490,2560,490C2506.7,490,2453,490,2400,490C2346.7,490,2293,490,2240,490C2186.7,490,2133,490,2080,490C2026.7,490,1973,490,1920,490C1866.7,490,1813,490,1760,490C1706.7,490,1653,490,1600,490C1546.7,490,1493,490,1440,490C1386.7,490,1333,490,1280,490C1226.7,490,1173,490,1120,490C1066.7,490,1013,490,960,490C906.7,490,853,490,800,490C746.7,490,693,490,640,490C586.7,490,533,490,480,490C426.7,490,373,490,320,490C266.7,490,213,490,160,490C106.7,490,53,490,27,490L0,490Z"/><defs><linearGradient id="sw-gradient-1" x1="0" x2="0" y1="1" y2="0"><stop stop-color="rgba(19.719, 210.958, 36.033, 1)" offset="0%"/><stop stop-color="rgba(92.094, 220.066, 10.63, 1)" offset="100%"/></linearGradient></defs><path style="transform:translate(0, 50px); opacity:0.9" fill="url(#sw-gradient-1)" d="M0,196L26.7,204.2C53.3,212,107,229,160,245C213.3,261,267,278,320,302.2C373.3,327,427,359,480,318.5C533.3,278,587,163,640,98C693.3,33,747,16,800,49C853.3,82,907,163,960,236.8C1013.3,310,1067,376,1120,408.3C1173.3,441,1227,441,1280,432.8C1333.3,425,1387,408,1440,359.3C1493.3,310,1547,229,1600,220.5C1653.3,212,1707,278,1760,294C1813.3,310,1867,278,1920,245C1973.3,212,2027,180,2080,155.2C2133.3,131,2187,114,2240,147C2293.3,180,2347,261,2400,269.5C2453.3,278,2507,212,2560,155.2C2613.3,98,2667,49,2720,40.8C2773.3,33,2827,65,2880,114.3C2933.3,163,2987,229,3040,261.3C3093.3,294,3147,294,3200,253.2C3253.3,212,3307,131,3360,81.7C3413.3,33,3467,16,3520,40.8C3573.3,65,3627,131,3680,155.2C3733.3,180,3787,163,3813,155.2L3840,147L3840,490L3813.3,490C3786.7,490,3733,490,3680,490C3626.7,490,3573,490,3520,490C3466.7,490,3413,490,3360,490C3306.7,490,3253,490,3200,490C3146.7,490,3093,490,3040,490C2986.7,490,2933,490,2880,490C2826.7,490,2773,490,2720,490C2666.7,490,2613,490,2560,490C2506.7,490,2453,490,2400,490C2346.7,490,2293,490,2240,490C2186.7,490,2133,490,2080,490C2026.7,490,1973,490,1920,490C1866.7,490,1813,490,1760,490C1706.7,490,1653,490,1600,490C1546.7,490,1493,490,1440,490C1386.7,490,1333,490,1280,490C1226.7,490,1173,490,1120,490C1066.7,490,1013,490,960,490C906.7,490,853,490,800,490C746.7,490,693,490,640,490C586.7,490,533,490,480,490C426.7,490,373,490,320,490C266.7,490,213,490,160,490C106.7,490,53,490,27,490L0,490Z"/></svg>