<svg id="visual" viewBox="0 0 900 600" width="900" height="600" xmlns="http://www.w3.org/2000/svg" xmlns:xlink="http://www.w3.org/1999/xlink" version="1.1"><g transform="translate(743.4043375533456 -26.2949027604069)"><path d="M326.4 -375.6C469.1 -345.7 662.5 -311.9 723.6 -213.9C784.6 -115.9 713.3 46.4 592.7 123C472.1 199.7 302.2 190.9 195.2 255.1C88.2 319.4 44.1 456.7 -13.6 475.4C-71.3 494.2 -142.6 394.3 -227.1 322.8C-311.6 251.2 -409.3 208 -428.8 141C-448.3 74 -389.6 -16.8 -345.1 -99.3C-300.6 -181.7 -270.2 -255.9 -215 -314.3C-159.9 -372.7 -79.9 -415.4 6 -423.6C91.9 -431.8 183.8 -405.6 326.4 -375.6" fill="#035114"></path></g></svg>