<svg xmlns="http://www.w3.org/2000/svg" version="1.1" xmlns:xlink="http://www.w3.org/1999/xlink" xmlns:svgjs="http://svgjs.dev/svgjs" width="2560" height="500" preserveAspectRatio="none" viewBox="0 0 2560 600">
    <g mask="url(&quot;#SvgjsMask1148&quot;)" fill="none">
        <path d="M -859.2062261070381,529 C -688.41,473.4 -346.81,275 -5.206226107038146,251 C 336.39,227 507.19,412 848.7937738929619,409 C 1190.39,406 1361.19,213.4 1702.7937738929618,236 C 2044.39,258.6 2385.35,529.2 2556.793773892962,522 C 2728.24,514.8 2559.36,264.4 2560,200" stroke="rgba(255, 146, 0, 1)" stroke-width="2"></path>
        <path d="M -753.8068247391127,476 C -583.01,431.6 -241.41,266 100.19317526088724,254 C 441.79,242 612.59,452.8 954.1931752608873,416 C 1295.79,379.2 1466.59,56.2 1808.1931752608873,70 C 2149.79,83.8 2511.83,448.6 2662.193175260887,485 C 2812.55,521.4 2580.44,298.6 2560,252" stroke="rgba(255, 241, 0, 1)" stroke-width="2"></path>
        <path d="M -1287.895246677419,497 C -1117.1,431.4 -775.5,157.2 -433.895246677419,169 C -92.3,180.8 78.5,576.4 420.104753322581,556 C 761.7,535.6 932.5,75.4 1274.104753322581,67 C 1615.7,58.6 1870.93,513.6 2128.104753322581,514 C 2385.28,514.4 2473.62,158 2560,69" stroke="rgba(187, 69, 167, 1)" stroke-width="2"></path>
        <path d="M -776.0043547418452,241 C -605.2,287 -263.6,460.8 77.99564525815482,471 C 419.6,481.2 590.4,289.6 931.9956452581548,292 C 1273.6,294.4 1444.4,523.6 1785.9956452581548,483 C 2127.6,442.4 2485.19,114.6 2639.995645258155,89 C 2794.8,63.4 2576,301.8 2560,355" stroke="rgba(255, 146, 0, 1)" stroke-width="2"></path>
        <path d="M -729.1313435932926,171 C -558.33,242 -216.73,503.2 124.86865640670734,526 C 466.47,548.8 637.27,319.8 978.8686564067074,285 C 1320.47,250.2 1491.27,398.8 1832.8686564067073,352 C 2174.47,305.2 2541.44,31.4 2686.8686564067075,51 C 2832.29,70.6 2585.37,370.2 2560,450" stroke="rgba(255, 146, 0, 1)" stroke-width="2"></path>
    </g>
    <defs>
        <mask id="SvgjsMask1148">
            <rect width="2560" height="600" fill="#ffffff"></rect>
        </mask>
    </defs>
</svg>